<svg width="74" height="74" viewBox="0 0 74 74" fill="none" xmlns="http://www.w3.org/2000/svg">
<path fill-rule="evenodd" clip-rule="evenodd" d="M25.2966 8.16798C23.2607 5.93864 22.0627 4.62689 21.8077 2C19.1728 4.83853 18.1351 7.34333 18.1493 12.3131C8.43715 18.0695 2 28.1437 2 39.6092C2 57.4982 17.67 72 37 72C56.33 72 72 57.4982 72 39.6092C72 21.7203 56.33 7.2185 37 7.2185C35.3325 7.2185 33.6922 7.32642 32.0868 7.53513C31.3493 5.99042 31.3243 4.96032 32 3.25964C28.9558 4.95851 27.8494 6.30569 26.5061 8.6996C26.3153 8.75502 26.1252 8.81191 25.9358 8.87026C25.7144 8.62539 25.5013 8.39205 25.2966 8.16798Z" fill="#FFDF7A"/>
<path d="M21.8077 2L23.3007 1.85506C23.2436 1.26736 22.8471 0.767811 22.2877 0.578869C21.7283 0.389927 21.1101 0.546751 20.7084 0.979501L21.8077 2ZM25.2966 8.16798L24.189 9.17951L24.189 9.17951L25.2966 8.16798ZM18.1493 12.3131L18.9141 13.6035C19.3712 13.3326 19.6508 12.8401 19.6493 12.3088L18.1493 12.3131ZM32.0868 7.53513L30.7332 8.18142C31.0127 8.76685 31.6369 9.10625 32.2802 9.02261L32.0868 7.53513ZM32 3.25964L33.394 3.8135C33.6283 3.22375 33.4662 2.55036 32.9891 2.13192C32.512 1.71348 31.8232 1.64055 31.269 1.9498L32 3.25964ZM26.5061 8.6996L26.9245 10.1401C27.3022 10.0303 27.6217 9.77664 27.8142 9.43362L26.5061 8.6996ZM25.9358 8.87026L24.8233 9.87639C25.2143 10.3088 25.8204 10.4754 26.3775 10.3038L25.9358 8.87026ZM20.3147 2.14494C20.6237 5.32754 22.177 6.97643 24.189 9.17951L26.4042 7.15646C24.3443 4.90086 23.5018 3.92624 23.3007 1.85506L20.3147 2.14494ZM19.6493 12.3088C19.6425 9.92206 19.8899 8.24788 20.3935 6.87335C20.8916 5.51393 21.6778 4.34478 22.9071 3.0205L20.7084 0.979501C19.3027 2.49374 18.2526 3.99626 17.5766 5.84132C16.9062 7.67126 16.6419 9.73438 16.6493 12.3174L19.6493 12.3088ZM3.5 39.6092C3.5 28.7314 9.60553 19.1207 18.9141 13.6035L17.3845 11.0227C7.26877 17.0183 0.5 27.5559 0.5 39.6092H3.5ZM37 70.5C18.3869 70.5 3.5 56.5624 3.5 39.6092H0.5C0.5 58.4339 16.9532 73.5 37 73.5V70.5ZM70.5 39.6092C70.5 56.5624 55.6131 70.5 37 70.5V73.5C57.0468 73.5 73.5 58.4339 73.5 39.6092H70.5ZM37 8.7185C55.6131 8.7185 70.5 22.6561 70.5 39.6092H73.5C73.5 20.7846 57.0468 5.7185 37 5.7185V8.7185ZM32.2802 9.02261C33.8215 8.82223 35.3972 8.7185 37 8.7185V5.7185C35.2677 5.7185 33.5628 5.83062 31.8935 6.04765L32.2802 9.02261ZM30.606 2.70578C30.2303 3.65153 29.9939 4.54527 30.0138 5.48748C30.0338 6.43829 30.3115 7.29817 30.7332 8.18142L33.4405 6.88884C33.1247 6.22738 33.0211 5.79985 33.0131 5.42426C33.005 5.04008 33.0941 4.56842 33.394 3.8135L30.606 2.70578ZM27.8142 9.43362C28.4601 8.28259 28.9979 7.47696 29.6905 6.76474C30.3823 6.05339 31.2885 5.37445 32.731 4.56948L31.269 1.9498C29.6672 2.8437 28.4981 3.68778 27.5398 4.67322C26.5824 5.65778 25.8954 6.72269 25.1979 7.96557L27.8142 9.43362ZM26.3775 10.3038C26.5591 10.2478 26.7415 10.1932 26.9245 10.1401L26.0877 7.25914C25.8891 7.31682 25.6912 7.37603 25.4941 7.43677L26.3775 10.3038ZM24.189 9.17951C24.3939 9.40391 24.6047 9.63463 24.8233 9.87639L27.0483 7.86414C26.8241 7.61615 26.6086 7.38019 26.4042 7.15646L24.189 9.17951Z" fill="black"/>
<ellipse rx="4.98553" ry="6.16444" transform="matrix(0.996536 0.0831619 -0.0948777 0.995489 21.339 39.4971)" fill="black"/>
<ellipse rx="2.15037" ry="2.28471" transform="matrix(0.996485 0.0837742 -0.0955748 0.995422 20.9862 39.9023)" fill="white"/>
<ellipse rx="4.98553" ry="6.16444" transform="matrix(0.996536 0.0831619 -0.0948777 0.995489 49.8368 40.4475)" fill="black"/>
<ellipse rx="2.22157" ry="2.47076" transform="matrix(0.996485 0.0837742 -0.0955748 0.995422 49.0749 40.9581)" fill="white"/>
<path d="M11.1635 52.3792C11.5351 57.2333 42.089 60.0338 44.0842 54.2462C44.5698 52.2496 44.6827 51.259 35.7043 50.5123C32.5469 46.9097 30.5169 46.4049 22.9351 49.9522C13.1587 47.1517 10.8201 47.8937 11.1635 52.3792Z" fill="#F08A04" stroke="black" stroke-width="3" stroke-linejoin="round"/>
<ellipse cx="33.3101" cy="58.3535" rx="6.58413" ry="1.49357" fill="black"/>
<mask id="path-9-inside-1_4_542" fill="white">
<ellipse cx="33.9086" cy="59.6604" rx="4.38942" ry="2.80045"/>
</mask>
<ellipse cx="33.9086" cy="59.6604" rx="4.38942" ry="2.80045" fill="#D70E0E"/>
<path d="M35.298 59.6604C35.298 59.0559 35.6768 58.9342 35.3988 59.1115C35.1555 59.2667 34.6368 59.4608 33.9086 59.4608V65.4608C35.6046 65.4608 37.2806 65.0281 38.6259 64.1697C39.9367 63.3335 41.298 61.8115 41.298 59.6604H35.298ZM33.9086 59.4608C33.1804 59.4608 32.6616 59.2667 32.4184 59.1115C32.1404 58.9342 32.5192 59.0559 32.5192 59.6604H26.5192C26.5192 61.8115 27.8805 63.3335 29.1912 64.1697C30.5366 65.0281 32.2126 65.4608 33.9086 65.4608V59.4608ZM32.5192 59.6604C32.5192 60.2648 32.1404 60.3866 32.4184 60.2093C32.6616 60.0541 33.1804 59.8599 33.9086 59.8599V53.8599C32.2126 53.8599 30.5366 54.2927 29.1912 55.151C27.8805 55.9873 26.5192 57.5093 26.5192 59.6604H32.5192ZM33.9086 59.8599C34.6368 59.8599 35.1555 60.0541 35.3988 60.2093C35.6768 60.3866 35.298 60.2648 35.298 59.6604H41.298C41.298 57.5093 39.9367 55.9873 38.6259 55.151C37.2806 54.2927 35.6046 53.8599 33.9086 53.8599V59.8599Z" fill="black" mask="url(#path-9-inside-1_4_542)"/>
<path d="M28.1226 57.6067L23.3341 57.0466C25.7283 67.5016 44.4831 66.1948 43.286 55.7397L39.2956 57.42C35.9038 63.3943 30.7163 61.9007 28.1226 57.6067Z" fill="#E88B21" stroke="black" stroke-width="3" stroke-linejoin="round"/>
</svg>
