<svg width="1808" height="843" viewBox="0 0 1808 843" fill="none" xmlns="http://www.w3.org/2000/svg">
<path d="M587.944 184.331C391.786 136.931 205.798 -60.3805 57.0979 18.3353C-109.897 106.736 138.891 502.192 176.097 559.447C179.2 564.223 181.533 569.055 184.058 574.16C198.141 602.629 260.986 699.918 466 711C706.5 724 629.877 612.837 860.711 758.548C1091.54 904.259 1169.24 821.647 1253.68 800.867C1322.93 783.827 1625.5 685.425 1732.16 650.562C1755.22 643.023 1771.97 623.297 1775.46 599.284C1794.66 467.311 1848.52 46.7994 1752.99 61.6457C1647.89 77.9794 1535.32 48.839 1519.66 44.5595C1518.38 44.2102 1517.37 43.9454 1516.07 43.6628C1489.18 37.7935 1157.65 -32.8627 1045.38 26.4447C928.333 88.2769 784.102 231.731 587.944 184.331Z" fill="#FFF0BF"/>
</svg>
